# xmcd CD database file
#
# Track frame offsets:
#	150
#	50357
#	98483
#	128051
#	157890
#	241785
#	271997
#	289808
#
# Disc length: 4039 seconds
#
# Revision: 0
# Processed by: cddbd v1.5.2PL0 Copyright (c) Steve Scherf et al.
# Submitted via: CDex 1.70beta2
#
DISCID=5f0fc508
DTITLE=Keith Jarrett - Bye bye blackbird (L'adieu à Miles Davis)
DYEAR=1900
DGENRE=Jazz
TTITLE0=Bye bye blackbird
TTITLE1=You won't forget me
TTITLE2=Butch and butch
TTITLE3=Summer night
TTITLE4=For miles
TTITLE5=Straight no chaser
TTITLE6=I thought about you
TTITLE7=Blackbird Bye bye
EXTD=
EXTT0=
EXTT1=
EXTT2=
EXTT3=
EXTT4=
EXTT5=
EXTT6=
EXTT7=
PLAYORDER=
